<svg xmlns="http://www.w3.org/2000/svg" viewBox="0 0 206.85 161.44"><defs><style>.a{fill:#FFFFFF;}</style></defs><title>wsr_logo</title><path class="a" d="M125.74,102.44a16.62,16.62,0,0,0-5.91-1c-1.77,0-3.88.62-3.88,2.72,0,3.92,11.46,1.44,11.46,10.32,0,5.74-5.26,8-10.63,8a30,30,0,0,1-7.48-1.06l.39-5.25a14.91,14.91,0,0,0,6.5,1.62c1.67,0,4.33-.62,4.33-3,0-4.83-11.47-1.53-11.47-10.42,0-5.3,4.78-7.64,9.94-7.64a31.76,31.76,0,0,1,7.19.9l-.44,4.83"/><path class="a" d="M156.45,97.31h6.6v24.61h-6.6V97.31"/><path class="a" d="M204.3,102.44a16.58,16.58,0,0,0-5.91-1c-1.77,0-3.89.62-3.89,2.72,0,3.92,11.47,1.44,11.47,10.32,0,5.74-5.26,8-10.63,8a30,30,0,0,1-7.48-1.06l.39-5.25a14.91,14.91,0,0,0,6.5,1.62c1.67,0,4.33-.62,4.33-3,0-4.83-11.47-1.53-11.47-10.42,0-5.3,4.78-7.64,9.95-7.64a31.82,31.82,0,0,1,7.18.9l-.44,4.83"/><path class="a" d="M143.57,108.34l9.34-11h-7.78l-7.87,9.84h-.1V84.07l-6.59,2v35.84h6.59V110h.1l8.47,12h8.36l-10.52-13.58"/><path class="a" d="M167.3,86.08v35.84h6.59V84.07l-6.59,2"/><path class="a" d="M177.7,86.08h0v35.84h6.6V84.07l-6.59,2"/><path class="a" d="M163.56,88.12a3.68,3.68,0,1,0-3.67,3.68,3.67,3.67,0,0,0,3.67-3.68"/><path class="a" d="M49,120.18c-5,0-8.4-4.12-8.4-10.27S44,99.65,49,99.65s8.4,4.12,8.4,10.26-3.38,10.27-8.4,10.27m0-22.93c-8.59,0-11.63,6.82-11.63,12.66s3,12.68,11.63,12.68,11.62-6.83,11.62-12.68S57.61,97.25,49,97.25"/><path class="a" d="M66.24,101.69v-4H63.5v24.2h2.93V109.81c0-4.46,1.27-9.78,7.28-9.78l.92,0V100l.14-2.82h-.34c-4.06,0-6.82,1.53-8.2,4.54"/><path class="a" d="M94.77,120.09c-6.78,0-7.52-7.18-7.52-10.27S88,99.56,94.77,99.56c5.19,0,7.52,5.15,7.52,10.26s-2.33,10.27-7.52,10.27M105.1,85.42l-2.81.86v15a8.83,8.83,0,0,0-8-4.09C85.81,97.26,84,104.1,84,109.82c0,7.82,3.93,12.68,10.25,12.68,3.76,0,6.31-1.39,8-4.33v3.75h2.93V85.38l-.12,0"/><path class="a" d="M80.65,85.42l-2.81.86v35.64h2.93V85.38l-.12,0"/><path class="a" d="M3.14,97.72H0l0,.12,8,24,0,.06h3.62l6.84-21.07h.22l6.85,21.07h3.61l8.21-24.2H34.44s-6.89,21-6.94,21.07h-.22L20.64,97.72H17l-7,21.07H9.81L3.21,97.72H3.14"/><path class="a" d="M150.33,42.43S162.11,40.34,166,31c0,0,68.59,14.05,28.1,50.64,0,0,15-14.15,6.63-25.46,0,0,4.69,14-13.65,23.51,0,0,39.77-28.26-36.71-37.23"/><path class="a" d="M187.91,37.3A58.53,58.53,0,0,1,198,43.54,48.76,48.76,0,0,0,181.28,5.26,7.05,7.05,0,0,1,177,9.39a7.7,7.7,0,0,0-3.52,3.44A41.07,41.07,0,0,1,187.91,37.3"/><path class="a" d="M164.14,32.71a10,10,0,0,0,1.33-2.61,88.39,88.39,0,0,1,12.23,3C170.18,11.73,156.21,0,156.21,0c-.39,1.12-4.49,3.17-7.27,4.39s-2.05,6.39-2.05,6.39a69,69,0,0,1,17.25,21.93"/><path class="a" d="M192.89,56.45C192,67,185.67,78.24,185.67,78.24a81.33,81.33,0,0,0,9.42-19,12.19,12.19,0,0,0-2.2-2.82"/><path class="a" d="M192.07,55.7a24.49,24.49,0,0,0-3.55-2.5,71,71,0,0,1-4.9,19.92,28,28,0,0,0,3.88-6.51c.07,2.85-2.27,8.49-2.27,8.49,4-6.47,6-14.34,6.84-19.4"/><path class="a" d="M168.27,77.84A68.35,68.35,0,0,1,155,69.5c5.5,4.15,14.68,6.79,14.68,6.79C149.43,66,145,56.67,145,56.67c-1.95-.07-3.13,1.17-3.9,1.6a8.66,8.66,0,0,1-2.88.39c7.73,12.45,30,19.18,30,19.18"/><path class="a" d="M159.2,44.3c-6.74-1.11-11.69-1.54-11.69-1.54a40.18,40.18,0,0,0,6.94-2.4,51,51,0,0,0-18.92-8.6s-1.76.58-2,3.51A3.34,3.34,0,0,1,131,38.58c35.41,9.47,40.73,38.64,40.73,38.64a69.33,69.33,0,0,0-7.54-21.59c5.42,5.56,9.15,19.69,9.15,19.69-1.2-14.6-7.26-24.44-14.18-31"/><path class="a" d="M169.79,46.41A107.33,107.33,0,0,1,175,75.46c3.77-7.31,2.78-24.14,2.78-24.14,3.51,6.87,3.07,25.61,3.07,25.61a87.65,87.65,0,0,0,.84-27,95.86,95.86,0,0,0-11.89-3.57"/><path class="a" d="M5.45,142.27H8.94a11.36,11.36,0,0,0,5.64-1.34,5.18,5.18,0,0,0,2.68-4.79,6.75,6.75,0,0,0-.67-3.25,4,4,0,0,0-1.82-1.72,7.64,7.64,0,0,0-2.68-.72c-1-.06-2.1-.09-3.25-.09H5.45Zm-3.3-14.78h8.6q9.57-.15,9.81,8.65a6.92,6.92,0,0,1-2.16,5.21,9.43,9.43,0,0,1-5.26,2.49v.1a4.21,4.21,0,0,1,2.78,1.24,4.08,4.08,0,0,1,.81,1.2,14.42,14.42,0,0,1,.72,1.57l5.69,12.91H19.5l-4.83-11.28q-1.34-3.11-2.77-3.87a4,4,0,0,0-1.63-.53c-.6,0-1.3-.05-2.1-.05H5.45v15.73H2.15V127.49"/><path class="a" d="M43.45,155.13q0,2.77.19,5.74H40.72v-4.36h-.09a8.89,8.89,0,0,1-.91,1.63,8,8,0,0,1-1.48,1.63A7.2,7.2,0,0,1,36,160.91a8.71,8.71,0,0,1-3.25.53c-3,0-5.1-.93-6.41-2.68a10.48,10.48,0,0,1-1.91-6.69V136.48h3V151.3a9.25,9.25,0,0,0,1.39,5.45,4.8,4.8,0,0,0,4.4,2.11,6.74,6.74,0,0,0,3.49-.86,5.93,5.93,0,0,0,2.19-2.11A8.51,8.51,0,0,0,40.1,153a14.48,14.48,0,0,0,.33-3.06V136.48h3v18.65"/><path class="a" d="M53.11,158.86a6.13,6.13,0,0,0,3.82-1.2,3.76,3.76,0,0,0,1.58-3.16,4.08,4.08,0,0,0-1.77-3.39A21.13,21.13,0,0,0,52.68,149c-.74-.35-1.44-.72-2.11-1.1a14.53,14.53,0,0,1-1.91-1.29,6.67,6.67,0,0,1-1.34-1.77,4.62,4.62,0,0,1-.53-2.25c0-2.42.86-4.14,2.49-5.16a10,10,0,0,1,5.45-1.49,24.91,24.91,0,0,1,2.73.2,17.39,17.39,0,0,1,3.3,1l-.29,2.58a14.52,14.52,0,0,0-5.4-1.14,7.06,7.06,0,0,0-3.73.85,2.81,2.81,0,0,0-1.1,1.19,4,4,0,0,0-.43,2,2.25,2.25,0,0,0,.52,1.42,5.81,5.81,0,0,0,1.39,1.14c.57.32,1.23.65,2,1s1.45.67,2.15,1.06A13.59,13.59,0,0,1,60,149.83a7,7,0,0,1,1,7.87,6.73,6.73,0,0,1-2,2.16,11.06,11.06,0,0,1-5.69,1.58,20.81,20.81,0,0,1-6.84-1.15l.29-3a13.64,13.64,0,0,0,6.36,1.53"/><path class="a" d="M69.32,158.86a6.13,6.13,0,0,0,3.82-1.2,3.76,3.76,0,0,0,1.58-3.16A4.08,4.08,0,0,0,73,151.11,20.93,20.93,0,0,0,68.88,149c-.73-.35-1.43-.72-2.1-1.1a14.53,14.53,0,0,1-1.91-1.29,6.67,6.67,0,0,1-1.34-1.77,4.62,4.62,0,0,1-.53-2.25c0-2.42.86-4.14,2.49-5.16a10,10,0,0,1,5.45-1.49,24.91,24.91,0,0,1,2.73.2,17.39,17.39,0,0,1,3.3,1l-.29,2.58a14.52,14.52,0,0,0-5.4-1.14,7,7,0,0,0-3.73.85,2.81,2.81,0,0,0-1.1,1.19,4,4,0,0,0-.43,2,2.25,2.25,0,0,0,.52,1.42,5.62,5.62,0,0,0,1.39,1.14c.57.32,1.23.65,2,1s1.45.67,2.15,1.06a13.71,13.71,0,0,1,4.16,2.68,7,7,0,0,1,1,7.87,6.73,6.73,0,0,1-2,2.16,11.06,11.06,0,0,1-5.69,1.58,20.81,20.81,0,0,1-6.84-1.15l.29-3a13.61,13.61,0,0,0,6.36,1.53"/><path class="a" d="M81,136.48h3v24.39H81ZM84,130H81v-4h3v4"/><path class="a" d="M103,148.58h-.86c-1.31,0-2.62,0-3.92.09a14.38,14.38,0,0,0-3.73.82,5.91,5.91,0,0,0-2.68,1.76,4.54,4.54,0,0,0-1.1,3.21,3.68,3.68,0,0,0,1.53,3.34,5.79,5.79,0,0,0,3.54,1.06,7.18,7.18,0,0,0,4.16-1.06,6,6,0,0,0,2.15-2.39,7.73,7.73,0,0,0,.81-2.91c.07-1,.1-1.8.1-2.44Zm.29,8.36h-.1a7.25,7.25,0,0,1-3.2,3.3,9.91,9.91,0,0,1-8.66.39,6.34,6.34,0,0,1-2.48-1.82,7.41,7.41,0,0,1-1.44-4.26,7.28,7.28,0,0,1,1.48-4.83,8,8,0,0,1,3.69-2.53,19.48,19.48,0,0,1,4.87-1.05c1.72-.1,3.38-.15,5-.15H103v-1.24c.09-4.18-1.75-6.26-5.55-6.26a13.29,13.29,0,0,0-7.17,2v-2.86a17.43,17.43,0,0,1,7.17-1.73q8.66-.09,8.56,9.09v10.76a37.59,37.59,0,0,0,.24,5.12h-3v-3.93"/></svg>